<svg xmlns="http://www.w3.org/2000/svg" width="94" height="95" fill="none" viewBox="0 0 94 95">
  <g clip-path="url(#a)">
    <path fill="#fff" fill-opacity=".2" d="M14.92 39.239c0-17.543 12.892-32.075 29.719-34.638a35.298 35.298 0 0 0-5.32-.402c-19.352 0-35.04 15.688-35.04 35.04 0 19.352 15.688 35.04 35.04 35.04 1.808 0 3.585-.138 5.32-.402-16.827-2.563-29.72-17.095-29.72-34.638Z"/>
    <path fill="#405FF2" d="M38.745 77.947C17.4 77.947.036 60.583.036 39.24.036 17.895 17.401.53 38.745.53c21.344 0 38.708 17.365 38.708 38.709 0 21.344-17.364 38.708-38.708 38.708Zm0-70.079c-17.298 0-31.37 14.073-31.37 31.37 0 17.298 14.072 31.371 31.37 31.371 17.298 0 31.37-14.072 31.37-31.37 0-17.298-14.072-31.37-31.37-31.37Z"/>
    <path fill="#fff" d="M90.295 94.53a3.658 3.658 0 0 1-2.594-1.075L71.28 77.036a3.67 3.67 0 0 1 5.19-5.189l16.418 16.42a3.67 3.67 0 0 1-2.594 6.263Zm-47.12-44.902 14.5-14.59a3.669 3.669 0 1 0-5.206-5.173L37.967 44.458a4.015 4.015 0 0 1-2.87 1.202 4.015 4.015 0 0 1-2.868-1.202l-7.023-7.083a3.669 3.669 0 1 0-5.21 5.166l7.022 7.084a11.302 11.302 0 0 0 8.08 3.373 11.3 11.3 0 0 0 8.077-3.37Z"/>
  </g>
  <defs>
    <clipPath id="a">
      <path fill="#fff" d="M0 .53h94v94H0z"/>
    </clipPath>
  </defs>
</svg>
