<svg xmlns="http://www.w3.org/2000/svg" width="61" height="61" fill="none" viewBox="0 0 61 61">
  <g clip-path="url(#a)">
    <path stroke="#FF5CF4" stroke-linecap="round" stroke-linejoin="round" stroke-miterlimit="10" stroke-width="3" d="M30.5 2.374V7.06m18.75-4.686L44.562 7.06"/>
    <path fill="#EEF1FB" d="M15.974 36.69a7.006 7.006 0 0 1-1.88-4.785c0-1.129.266-2.195.738-3.14l4.688-9.376a7.031 7.031 0 0 1 6.293-3.89H18.78a7.031 7.031 0 0 0-6.292 3.89L7.8 28.764a7.002 7.002 0 0 0-.739 3.14c0 1.85.714 3.531 1.88 4.786l18.126 19.5a4.675 4.675 0 0 0 3.434 1.497 4.675 4.675 0 0 0 3.434-1.497l.082-.088-18.042-19.41Z"/>
    <path stroke="#405FF2" stroke-linecap="round" stroke-linejoin="round" stroke-miterlimit="10" stroke-width="3" d="m48.511 19.39 4.688 9.374c.473.945.739 2.012.739 3.14 0 1.85-.714 3.531-1.88 4.787L33.933 56.189a4.675 4.675 0 0 1-3.434 1.497 4.675 4.675 0 0 1-3.434-1.497L8.943 36.691a7.007 7.007 0 0 1-1.88-4.786 6.99 6.99 0 0 1 .738-3.14l4.688-9.376a7.031 7.031 0 0 1 6.292-3.89H42.22a7.031 7.031 0 0 1 6.292 3.89Z"/>
    <path stroke="#FF5CF4" stroke-linecap="round" stroke-linejoin="round" stroke-miterlimit="10" stroke-width="3" d="m11.75 2.374 4.688 4.687"/>
    <path stroke="#405FF2" stroke-linecap="round" stroke-linejoin="round" stroke-miterlimit="10" stroke-width="3" d="M17.885 29.561h25.23m-17.302-4.688 4.687 4.688 4.688-4.688M30.5 43.623V29.76"/>
  </g>
  <defs>
    <clipPath id="a">
      <path fill="#fff" d="M.5.03h60v60H.5z"/>
    </clipPath>
  </defs>
</svg>
