<svg xmlns="http://www.w3.org/2000/svg" width="61" height="61" fill="none" viewBox="0 0 61 61">
  <path fill="#EEF1FB" d="M24.047 4.483a9.375 9.375 0 0 0-8.563 5.558l-6.097 13.68a7.03 7.03 0 0 0-6.543 7.012v5.39a5.86 5.86 0 0 0 5.86 5.86h1.605c.009-.451.02-.902.035-1.353a5.831 5.831 0 0 1-.597-2.576l-.106-4.157c0-3.074.625-4.258 2.907-4.717a3.4 3.4 0 0 0 2.438-1.972l7.529-17.167a9.375 9.375 0 0 1 8.563-5.558h-7.031Z"/>
  <path stroke="#405FF2" stroke-linecap="round" stroke-linejoin="round" stroke-miterlimit="10" stroke-width="3" d="M8.703 41.983a5.86 5.86 0 0 1-5.86-5.86v-5.39a7.03 7.03 0 0 1 6.544-7.013l6.097-13.679a9.375 9.375 0 0 1 8.563-5.558h10.675a9.375 9.375 0 0 1 8.35 5.111l3.014 5.905m12.07 15.234a7.031 7.031 0 0 0-7.031-7.031H19.133m9.61-8.203V4.6m4.218 37.383h-5.274m-6.445-4.688a4.688 4.688 0 1 0 0 9.375 4.688 4.688 0 0 0 0-9.375Z"/>
  <path stroke="#FF5CF3" stroke-linecap="round" stroke-linejoin="round" stroke-miterlimit="10" stroke-width="3" d="M58.156 41.631c0 4.498-3.646 8.203-8.144 8.203a8.145 8.145 0 0 1-8.145-8.144c0-4.498 3.705-8.145 8.203-8.145m-6.035 14.59-7.441 7.442"/>
</svg>
