<svg xmlns="http://www.w3.org/2000/svg" width="37" height="27" fill="none" viewBox="0 0 37 27">
  <path fill="#050B20" d="M9.1 25.83c-2.333 0-4.433-.933-6.3-2.8C.933 21.096 0 18.263 0 14.53c0-4.267 1.133-7.734 3.4-10.4C5.733 1.396 9.033.03 13.3.03c1.533 0 2.733.1 3.6.3v4.6c-.933-.134-2.133-.2-3.6-.2-2.267 0-4.1.766-5.5 2.3-1.333 1.333-2.1 3.1-2.3 5.3.867-1.067 2.267-1.6 4.2-1.6 2 0 3.7.7 5.1 2.1 1.4 1.333 2.1 3.1 2.1 5.3 0 2.267-.733 4.133-2.2 5.6-1.467 1.4-3.333 2.1-5.6 2.1Zm19.9 0c-2.333 0-4.433-.933-6.3-2.8-1.867-1.934-2.8-4.767-2.8-8.5 0-4.267 1.133-7.734 3.4-10.4 2.333-2.734 5.633-4.1 9.9-4.1 1.533 0 2.733.1 3.6.3v4.6c-.933-.134-2.133-.2-3.6-.2-2.267 0-4.1.766-5.5 2.3-1.333 1.333-2.1 3.1-2.3 5.3.867-1.067 2.267-1.6 4.2-1.6 2 0 3.7.7 5.1 2.1 1.4 1.333 2.1 3.1 2.1 5.3 0 2.267-.733 4.133-2.2 5.6-1.467 1.4-3.333 2.1-5.6 2.1Z"/>
</svg>
